<svg width="20" height="20" viewBox="0 0 20 20" fill="none" xmlns="http://www.w3.org/2000/svg">
<path d="M1.52248 12.385L2.41349 11.931L2.41349 11.931L1.52248 12.385ZM2.61502 13.4775L3.06901 12.5865H3.06901L2.61502 13.4775ZM12.385 1.52248L11.931 2.41349L11.931 2.41349L12.385 1.52248ZM13.4775 2.61502L12.5865 3.06901V3.06901L13.4775 2.61502ZM2.61502 1.52248L2.16103 0.631477L2.16103 0.631477L2.61502 1.52248ZM1.52248 2.61502L0.631477 2.16103L0.631477 2.16103L1.52248 2.61502ZM7.61502 18.4775L8.06901 17.5865L7.61502 18.4775ZM6.52248 17.385L7.41349 16.931L6.52248 17.385ZM18.4775 17.385L17.5865 16.931L18.4775 17.385ZM17.385 18.4775L16.931 17.5865L17.385 18.4775ZM17.385 6.52248L16.931 7.41349L17.385 6.52248ZM18.4775 7.61502L17.5865 8.06901L18.4775 7.61502ZM7.61502 6.52248L8.06901 7.41349L7.61502 6.52248ZM6.52248 7.61502L7.41349 8.06901L6.52248 7.61502ZM5.25 2.25H9.75V0.25H5.25V2.25ZM2.25 9.75V5.25H0.25V9.75H2.25ZM12.75 5.25V6.25977H14.75V5.25H12.75ZM6.25 12.75H5.25V14.75H6.25V12.75ZM0.25 9.75C0.25 10.4336 0.249222 11.0064 0.287382 11.4734C0.326495 11.9521 0.411435 12.4071 0.631477 12.839L2.41349 11.931C2.36105 11.8281 2.30975 11.6656 2.28074 11.3106C2.25078 10.9438 2.25 10.4666 2.25 9.75H0.25ZM5.25 12.75C4.53343 12.75 4.05615 12.7492 3.68944 12.7193C3.3344 12.6903 3.17194 12.639 3.06901 12.5865L2.16103 14.3685C2.59289 14.5886 3.04785 14.6735 3.52657 14.7126C3.99362 14.7508 4.56644 14.75 5.25 14.75V12.75ZM0.631477 12.839C0.967034 13.4975 1.50247 14.033 2.16103 14.3685L3.06901 12.5865C2.78677 12.4427 2.5573 12.2132 2.41349 11.931L0.631477 12.839ZM9.75 2.25C10.4666 2.25 10.9438 2.25078 11.3106 2.28074C11.6656 2.30975 11.8281 2.36105 11.931 2.41349L12.839 0.631477C12.4071 0.411435 11.9521 0.326495 11.4734 0.287382C11.0064 0.249222 10.4336 0.25 9.75 0.25V2.25ZM14.75 5.25C14.75 4.56644 14.7508 3.99362 14.7126 3.52657C14.6735 3.04785 14.5886 2.59289 14.3685 2.16103L12.5865 3.06901C12.639 3.17194 12.6903 3.3344 12.7193 3.68944C12.7492 4.05615 12.75 4.53343 12.75 5.25H14.75ZM11.931 2.41349C12.2132 2.5573 12.4427 2.78677 12.5865 3.06901L14.3685 2.16103C14.033 1.50247 13.4975 0.967034 12.839 0.631477L11.931 2.41349ZM5.25 0.25C4.56644 0.25 3.99362 0.249222 3.52657 0.287382C3.04785 0.326495 2.59289 0.411435 2.16103 0.631477L3.06901 2.41349C3.17194 2.36105 3.3344 2.30975 3.68944 2.28074C4.05615 2.25078 4.53343 2.25 5.25 2.25V0.25ZM2.25 5.25C2.25 4.53343 2.25078 4.05615 2.28074 3.68944C2.30975 3.3344 2.36105 3.17194 2.41349 3.06901L0.631477 2.16103C0.411435 2.59289 0.326495 3.04785 0.287382 3.52657C0.249222 3.99362 0.25 4.56644 0.25 5.25H2.25ZM2.16103 0.631477C1.50247 0.967034 0.967034 1.50247 0.631477 2.16103L2.41349 3.06901C2.5573 2.78677 2.78677 2.5573 3.06901 2.41349L2.16103 0.631477ZM10.25 7.25H14.75V5.25H10.25V7.25ZM17.75 10.25V14.75H19.75V10.25H17.75ZM14.75 17.75H10.25V19.75H14.75V17.75ZM7.25 14.75V10.25H5.25V14.75H7.25ZM10.25 17.75C9.53343 17.75 9.05615 17.7492 8.68944 17.7193C8.3344 17.6903 8.17194 17.639 8.06901 17.5865L7.16103 19.3685C7.59289 19.5886 8.04785 19.6735 8.52657 19.7126C8.99362 19.7508 9.56643 19.75 10.25 19.75V17.75ZM5.25 14.75C5.25 15.4336 5.24922 16.0064 5.28738 16.4734C5.32649 16.9521 5.41144 17.4071 5.63148 17.839L7.41349 16.931C7.36105 16.8281 7.30975 16.6656 7.28074 16.3106C7.25078 15.9438 7.25 15.4666 7.25 14.75H5.25ZM8.06901 17.5865C7.78677 17.4427 7.5573 17.2132 7.41349 16.931L5.63148 17.839C5.96703 18.4975 6.50247 19.033 7.16103 19.3685L8.06901 17.5865ZM17.75 14.75C17.75 15.4666 17.7492 15.9438 17.7193 16.3106C17.6903 16.6656 17.639 16.8281 17.5865 16.931L19.3685 17.839C19.5886 17.4071 19.6735 16.9521 19.7126 16.4734C19.7508 16.0064 19.75 15.4336 19.75 14.75H17.75ZM14.75 19.75C15.4336 19.75 16.0064 19.7508 16.4734 19.7126C16.9521 19.6735 17.4071 19.5886 17.839 19.3685L16.931 17.5865C16.8281 17.639 16.6656 17.6903 16.3106 17.7193C15.9438 17.7492 15.4666 17.75 14.75 17.75V19.75ZM17.5865 16.931C17.4427 17.2132 17.2132 17.4427 16.931 17.5865L17.839 19.3685C18.4975 19.033 19.033 18.4975 19.3685 17.839L17.5865 16.931ZM14.75 7.25C15.4666 7.25 15.9438 7.25078 16.3106 7.28074C16.6656 7.30975 16.8281 7.36105 16.931 7.41349L17.839 5.63148C17.4071 5.41144 16.9521 5.32649 16.4734 5.28738C16.0064 5.24922 15.4336 5.25 14.75 5.25V7.25ZM19.75 10.25C19.75 9.56643 19.7508 8.99362 19.7126 8.52657C19.6735 8.04785 19.5886 7.59289 19.3685 7.16103L17.5865 8.06901C17.639 8.17194 17.6903 8.3344 17.7193 8.68944C17.7492 9.05615 17.75 9.53343 17.75 10.25H19.75ZM16.931 7.41349C17.2132 7.5573 17.4427 7.78677 17.5865 8.06901L19.3685 7.16103C19.033 6.50247 18.4975 5.96703 17.839 5.63148L16.931 7.41349ZM10.25 5.25C9.56643 5.25 8.99362 5.24922 8.52657 5.28738C8.04785 5.32649 7.59289 5.41144 7.16103 5.63148L8.06901 7.41349C8.17194 7.36105 8.3344 7.30975 8.68944 7.28074C9.05615 7.25078 9.53343 7.25 10.25 7.25V5.25ZM7.25 10.25C7.25 9.53343 7.25078 9.05615 7.28074 8.68944C7.30975 8.3344 7.36105 8.17194 7.41349 8.06901L5.63148 7.16103C5.41144 7.59289 5.32649 8.04785 5.28738 8.52657C5.24922 8.99362 5.25 9.56643 5.25 10.25H7.25ZM7.16103 5.63148C6.50247 5.96703 5.96703 6.50247 5.63148 7.16103L7.41349 8.06901C7.5573 7.78677 7.78677 7.5573 8.06901 7.41349L7.16103 5.63148Z" fill="#22223B"/>
</svg>
